<!-- Embeded svg sprite reference -->
<svg display="none" xmlns="http://www.w3.org/2000/svg">

    <!--Facebook Icon-->
    <symbol viewBox="0 0 16 16" id="ic-facebook" xmlns="http://www.w3.org/2000/svg">
        <path d="M6.023 16L6 9H3V6h3V4c0-2.7 1.672-4 4.08-4 1.153 0 2.144.086 2.433.124v2.821h-1.67c-1.31 0-1.563.623-1.563 1.536V6H13l-1 3H9.28v7H6.023z"/>
    </symbol>

    <!--Twitter Icon-->
    <symbol viewBox="0 0 16 16" id="ic-twitter" xmlns="http://www.w3.org/2000/svg">
        <path d="M16 3c-.6.3-1.2.4-1.9.5.7-.4 1.2-1 1.4-1.8-.6.4-1.3.6-2.1.8-.6-.6-1.5-1-2.4-1-1.7 0-3.2 1.5-3.2 3.3 0 .3 0 .5.1.7-2.7-.1-5.2-1.4-6.8-3.4-.3.5-.4 1-.4 1.7 0 1.1.6 2.1 1.5 2.7-.5 0-1-.2-1.5-.4C.7 7.7 1.8 9 3.3 9.3c-.3.1-.6.1-.9.1-.2 0-.4 0-.6-.1.4 1.3 1.6 2.3 3.1 2.3-1.1.9-2.5 1.4-4.1 1.4H0c1.5.9 3.2 1.5 5 1.5 6 0 9.3-5 9.3-9.3v-.4C15 4.3 15.6 3.7 16 3z"/>
    </symbol>

    <!--Instagram Icon-->
    <symbol viewBox="0 0 512 512" id="ic-instagram" xmlns="http://www.w3.org/2000/svg">
        <path d="M352 0H160C71.648 0 0 71.648 0 160v192c0 88.352 71.648 160 160 160h192c88.352 0 160-71.648 160-160V160C512 71.648 440.352 0 352 0zm112 352c0 61.76-50.24 112-112 112H160c-61.76 0-112-50.24-112-112V160C48 98.24 98.24 48 160 48h192c61.76 0 112 50.24 112 112v192z"/>
        <path d="M256 128c-70.688 0-128 57.312-128 128s57.312 128 128 128 128-57.312 128-128-57.312-128-128-128zm0 208c-44.096 0-80-35.904-80-80 0-44.128 35.904-80 80-80s80 35.872 80 80c0 44.096-35.904 80-80 80z"/>
        <circle cx="393.6" cy="118.4" r="17.056"/>
    </symbol>

    <!--Medium Icon-->
    <symbol viewBox="0 0 483.86 483.86" id="ic-medium" xmlns="http://www.w3.org/2000/svg">
        <path d="M483.86 112.345h-26.699c-6.952 0-25.143 7.552-25.143 13.981v233.467c0 6.445 18.191 11.729 25.143 11.729h26.699v51.835H311.052v-51.835h34.57V129.615h-6.016L256.42 423.356h-64.406l-82.11-293.741h-6.219v241.906h34.555v51.835H0v-51.835h19.173c7.527 0 15.383-5.283 15.383-11.729V126.326c0-6.43-7.855-13.981-15.383-13.981H0V60.504h179.155l58.496 207.342h1.574l59.073-207.342H483.86v51.841z"/>
    </symbol>

    <!--Linkedin Icon-->
    <symbol viewBox="0 0 430.117 430.117" id="ic-linkedin" xmlns="http://www.w3.org/2000/svg">
        <path d="M430.117 261.543V420.56h-92.188V272.193c0-37.271-13.334-62.707-46.703-62.707-25.473 0-40.632 17.142-47.301 33.724-2.432 5.928-3.058 14.179-3.058 22.477V420.56h-92.219s1.242-251.285 0-277.32h92.21v39.309c-.187.294-.43.611-.606.896h.606v-.896c12.251-18.869 34.13-45.824 83.102-45.824 60.673-.001 106.157 39.636 106.157 124.818zM52.183 9.558C20.635 9.558 0 30.251 0 57.463c0 26.619 20.038 47.94 50.959 47.94h.616c32.159 0 52.159-21.317 52.159-47.94-.606-27.212-20-47.905-51.551-47.905zM5.477 420.56h92.184V143.24H5.477v277.32z"/>
    </symbol>

    <!--Github Icon-->
    <symbol viewBox="0 0 475.084 475.084" id="ic-github" xmlns="http://www.w3.org/2000/svg">
        <path d="M436.244 146.752c5.14-15.422 7.713-31.409 7.713-47.967 0-22.08-4.859-42.828-14.564-62.242-20.362 0-38.349 3.715-53.961 11.136-15.604 7.423-33.4 18.938-53.379 34.545-25.122-6.09-51.777-9.135-79.941-9.135-30.837 0-60.245 3.333-88.223 9.994-20.364-15.99-38.351-27.74-53.959-35.26-15.608-7.52-33.689-11.279-54.247-11.279-9.707 19.414-14.56 40.163-14.56 62.242 0 16.751 2.568 32.93 7.708 48.535C12.942 177.587 0 215.272 0 260.383c0 39.595 5.898 71.092 17.701 94.507 6.283 12.367 14.465 23.312 24.554 32.832 10.085 9.514 21.601 17.228 34.545 23.13 12.946 5.896 25.981 10.801 39.116 14.699 13.134 3.9 27.646 6.758 43.54 8.559 15.893 1.816 29.93 3.004 42.111 3.579 12.181.564 25.693.853 40.544.853 17.508 0 33.396-.432 47.678-1.283 14.277-.855 30.594-2.953 48.964-6.276 18.367-3.333 34.547-7.857 48.54-13.565 13.99-5.708 27.412-13.895 40.259-24.551 12.847-10.663 22.884-23.318 30.121-37.976 11.604-23.603 17.412-55.107 17.412-94.507-.007-45.302-12.95-83.178-38.841-113.632zm-34.249 207.703c-6.092 12.471-13.802 22.265-23.127 29.41-9.329 7.139-20.938 12.847-34.831 17.135-13.9 4.281-27.217 7.087-39.971 8.415-12.758 1.334-26.933 1.998-42.545 1.998h-47.966c-15.607 0-29.79-.664-42.541-1.998-12.752-1.328-26.075-4.134-39.971-8.415-13.891-4.288-25.5-9.996-34.829-17.135-9.329-7.146-17.037-16.939-23.128-29.41-6.09-12.471-9.136-27.076-9.136-43.824 0-22.847 6.567-42.264 19.702-58.245 13.134-15.99 30.929-23.982 53.387-23.982 8.188 0 26.746 1.997 55.677 5.995 13.513 2.093 28.456 3.14 44.823 3.14 16.372 0 31.313-1.044 44.824-3.14 29.317-3.999 47.869-5.995 55.678-5.995 22.457 0 40.252 7.996 53.386 23.982 13.135 15.988 19.698 35.398 19.698 58.245 0 16.751-3.046 31.364-9.13 43.824z"/>
        <path d="M166.875 265.52c-5.806-6.475-12.703-9.712-20.699-9.712-7.998 0-14.896 3.241-20.701 9.712-5.802 6.468-9.897 13.703-12.275 21.689-2.383 8.002-3.571 15.804-3.571 23.422 0 7.61 1.191 15.413 3.571 23.414 2.375 7.991 6.468 15.222 12.275 21.689 5.808 6.475 12.703 9.713 20.701 9.713 7.996 0 14.896-3.244 20.699-9.713 5.804-6.468 9.897-13.698 12.275-21.689 2.38-8.001 3.571-15.804 3.571-23.414 0-7.611-1.188-15.42-3.571-23.422-2.379-7.983-6.468-15.215-12.275-21.689zM349.601 265.52c-5.804-6.475-12.703-9.712-20.697-9.712-7.991 0-14.894 3.241-20.701 9.712-5.804 6.468-9.896 13.703-12.271 21.689-2.385 8.002-3.576 15.804-3.576 23.422 0 7.61 1.191 15.413 3.576 23.414 2.375 7.991 6.468 15.222 12.271 21.689 5.808 6.475 12.71 9.713 20.701 9.713 7.994 0 14.894-3.244 20.697-9.713 5.801-6.468 9.896-13.698 12.278-21.689 2.379-8.001 3.569-15.804 3.569-23.414 0-7.611-1.19-15.42-3.569-23.422-2.381-7.983-6.477-15.215-12.278-21.689z"/>
    </symbol>

    <!--Codepen Icon-->
    <symbol viewBox="0 0 31.665 31.665" id="ic-codepen" xmlns="http://www.w3.org/2000/svg">
        <path d="M16.878.415a2.501 2.501 0 0 0-2.809.034L1.485 9.214a2.5 2.5 0 0 0-1.071 2.052v9.444c0 .84.421 1.623 1.122 2.086l12.79 8.455a2.5 2.5 0 0 0 2.758 0l13.044-8.618a2.501 2.501 0 0 0 1.122-2.086v-9.279a2.5 2.5 0 0 0-1.121-2.085L16.878.415zm9.743 10.23L21.8 13.882l-4.521-3.288-.029-6.467 9.371 6.518zM13.979 4.133v6.329l-4.633 3.24-4.621-3.099 9.254-6.47zM3.458 13.722l2.991 2.004-2.991 2.093v-4.097zm10.6 13.493l-9.331-6.258 4.661-3.258 4.67 3.133v6.383zm-1.772-11.541l3.021-2.113 3.519 2.313-3.119 2.095-3.421-2.295zm5.068 11.541V20.83l4.463-2.991 4.805 3.159-9.268 6.217zm10.6-9.288l-3.168-2.082 3.168-2.125v4.207z"/>
    </symbol>

</svg>
